<svg version="1" xmlns="http://www.w3.org/2000/svg" width="260" height="260" viewBox="0 0 195.000000 195.000000"><path d="M39 3.7c-9.9 1.7-17.4 5.7-23.8 12.7-7.6 8.3-10.8 19.3-9.9 34.1 1 14.5 6.9 33.2 14.9 46.8 1.5 2.6 2.8 5 2.8 5.3 0 .8 7.9 12.3 14.4 20.9 6.6 8.7 26 28.6 32.5 33.3l4.1 2.9-7.9 2.6c-19.3 6.4-31.5 5.3-36.5-3.2-2.7-4.7-2.5-16.1.6-26.6l2.3-8-4.5-6.1c-2.5-3.3-6.2-8.9-8.3-12.4l-3.9-6.3-3.9 8.6c-3.3 7.4-6.3 16.5-8.5 25.9-1.3 5.2-1.3 21.6-.1 26.8 7.7 33.1 44.3 40.4 89.1 17.9 10.4-5.3 25.2-15 34.1-22.4 7.6-6.4 25.1-23.8 29.2-29.2l2.5-3.3-2.8-5.7c-3.3-6.9-9.4-17.2-10.4-17.8-.4-.3-3.1 2.7-6 6.6-6.8 9.1-23.5 25.8-33.3 33.3l-7.7 5.9-7.7-5.9c-4.3-3.3-12.4-10.5-17.9-16.1-9.9-9.8-23.4-26.6-23.4-29 0-1.9 12.4-16.8 21-25.3 8.9-8.8 13.6-12.9 19.7-17.2l4.3-3.2-4.7-3C84.2 43.4 70.7 37 69.2 37 67 37 46 57 38.8 65.9l-3.5 4.4-2.3-8.4c-5.7-21.3-1.2-32.6 13.1-33.1 36.3-1.2 89.3 38.8 112.2 84.7 7.2 14.5 10.2 25.5 10 36.8-.3 14.7-11.8 19.4-33.2 13.7l-8.1-2.2-6.1 4.6c-3.3 2.5-8.8 6.3-12.1 8.3l-6.1 3.8 6.9 3.2c25.4 11.9 50.9 13.3 66.4 3.8 12.3-7.6 18.3-20.9 17.6-38.9-.3-5.5-.8-11.6-1.1-13.5-1.3-6.9-6.5-21.2-10.8-29.8l-4.4-8.9 1.8-3.5c3.7-6.8 8.2-19.6 9.9-28.1 6.4-30.9-4.4-52.6-29-58.4-5.1-1.3-21.6-1.3-26.5-.1-13.5 3.3-20.8 5.8-29.7 10.2l-5.7 2.9-8.8-4.1c-14.4-6.7-27.6-10-40.4-10-4.1-.1-8.5.1-9.9.4zM156.5 30c8.9 2.9 11.1 13.5 6.5 31.4-1.1 4.3-1.7 8.3-1.4 9 .3.6-1.4-1.2-3.7-3.9-6.5-7.6-23.8-24.5-29.7-29l-5.2-3.9 4.2-1.3c6.5-2 18.7-3.9 22.6-3.6 1.9.1 4.9.7 6.7 1.3zm7.6 43.7c1.3 1.6 1.2 1.7-.3.4-1.7-1.3-2.2-2.1-1.4-2.1.2 0 1 .8 1.7 1.7zm5 7c1.3 1.6 1.2 1.7-.3.4-1.7-1.3-2.2-2.1-1.4-2.1.2 0 1 .8 1.7 1.7z"/><path d="M91 67c-1.7 1.7-2 3.3-2 10.5V86h-8.5C69.9 86 68 87.4 68 95s1.9 9 12.5 9H89v8.5c0 10.6 1.4 12.5 9 12.5s9-1.9 9-12.5V104h8.5c10.6 0 12.5-1.4 12.5-9s-1.9-9-12.5-9H107v-8.5c0-10.6-1.4-12.5-9-12.5-3.7 0-5.5.5-7 2z"/></svg>